<svg width="358" height="70" viewBox="0 0 358 70" fill="none" xmlns="http://www.w3.org/2000/svg">
<g filter="url(#filter0_d_2450_2753)">
<path d="M20 16C20 10.4772 24.4772 6 30 6H342C347.523 6 352 10.4772 352 16V40C352 45.5228 347.523 50 342 50H30C24.4772 50 20 45.5228 20 40V16Z" fill="white"/>
<path d="M20 16C20 10.4772 24.4772 6 30 6H342C347.523 6 352 10.4772 352 16V40C352 45.5228 347.523 50 342 50H30C24.4772 50 20 45.5228 20 40V16Z" stroke="white" stroke-width="3"/>
</g>
<defs>
<filter id="filter0_d_2450_2753" x="0.5" y="0.5" width="357" height="69" filterUnits="userSpaceOnUse" color-interpolation-filters="sRGB">
<feFlood flood-opacity="0" result="BackgroundImageFix"/>
<feColorMatrix in="SourceAlpha" type="matrix" values="0 0 0 0 0 0 0 0 0 0 0 0 0 0 0 0 0 0 127 0" result="hardAlpha"/>
<feOffset dx="-7" dy="7"/>
<feGaussianBlur stdDeviation="5.5"/>
<feComposite in2="hardAlpha" operator="out"/>
<feColorMatrix type="matrix" values="0 0 0 0 0 0 0 0 0 0 0 0 0 0 0 0 0 0 0.25 0"/>
<feBlend mode="normal" in2="BackgroundImageFix" result="effect1_dropShadow_2450_2753"/>
<feBlend mode="normal" in="SourceGraphic" in2="effect1_dropShadow_2450_2753" result="shape"/>
</filter>
</defs>
</svg>
