<svg width="358" height="77" viewBox="0 0 358 77" fill="none" xmlns="http://www.w3.org/2000/svg">
<g filter="url(#filter0_d_2231_2872)">
<path d="M20 16C20 10.4772 24.4772 6 30 6H342C347.523 6 352 10.4772 352 16V47C352 52.5228 347.523 57 342 57H30C24.4772 57 20 52.5228 20 47V16Z" fill="white"/>
<path d="M20 16C20 10.4772 24.4772 6 30 6H342C347.523 6 352 10.4772 352 16V47C352 52.5228 347.523 57 342 57H30C24.4772 57 20 52.5228 20 47V16Z" stroke="white" stroke-width="3"/>
</g>
<defs>
<filter id="filter0_d_2231_2872" x="0.5" y="0.5" width="357" height="76" filterUnits="userSpaceOnUse" color-interpolation-filters="sRGB">
<feFlood flood-opacity="0" result="BackgroundImageFix"/>
<feColorMatrix in="SourceAlpha" type="matrix" values="0 0 0 0 0 0 0 0 0 0 0 0 0 0 0 0 0 0 127 0" result="hardAlpha"/>
<feOffset dx="-7" dy="7"/>
<feGaussianBlur stdDeviation="5.5"/>
<feComposite in2="hardAlpha" operator="out"/>
<feColorMatrix type="matrix" values="0 0 0 0 0 0 0 0 0 0 0 0 0 0 0 0 0 0 0.25 0"/>
<feBlend mode="normal" in2="BackgroundImageFix" result="effect1_dropShadow_2231_2872"/>
<feBlend mode="normal" in="SourceGraphic" in2="effect1_dropShadow_2231_2872" result="shape"/>
</filter>
</defs>
</svg>
